<svg width="32" height="32" viewBox="0 0 32 32" fill="none" xmlns="http://www.w3.org/2000/svg">
<g clip-path="url(#clip0_5294_31661)">
<path d="M32 16C32 7.16344 24.8366 0 16 0C7.16344 0 0 7.16344 0 16C0 24.8366 7.16344 32 16 32C24.8366 32 32 24.8366 32 16Z" fill="#6E61FF"/>
<path d="M20.5822 16.7227C19.7716 16.7227 18.9689 16.8825 18.2201 17.1932C17.4711 17.5039 16.7907 17.9593 16.2175 18.5334C15.6443 19.1075 15.1896 19.789 14.8794 20.5391C14.5692 21.2892 14.4014 22.0931 14.4014 22.905H20.5822V16.7227Z" fill="#F4F4F8"/>
<path d="M8.24414 9.12599C10.0845 9.09324 14.4158 9.86011 14.4158 13.9428L14.416 22.9049C12.5672 22.9049 8.24439 21.5902 8.24439 17.6425L8.24414 9.12599Z" fill="#F4F4F8"/>
<path d="M20.583 13.5117C21.004 13.5117 21.4209 13.5948 21.8099 13.7562C22.1989 13.9175 22.5523 14.154 22.85 14.4522C23.1478 14.7504 23.3839 15.1044 23.545 15.494C23.7061 15.8835 23.7891 16.3011 23.7891 16.7228H20.583V13.5117Z" fill="#F4F4F8"/>
</g>
<defs>
<clipPath id="clip0_5294_31661">
<rect width="32" height="32" fill="white"/>
</clipPath>
</defs>
</svg>
