<svg width="252" height="252" viewBox="0 0 252 252" fill="none" xmlns="http://www.w3.org/2000/svg">
<rect width="252" height="252" fill="#6E61FF"/>
<path d="M162.499 131.639C156.033 131.639 149.629 132.915 143.655 135.396C137.681 137.876 132.253 141.511 127.68 146.093C123.108 150.676 119.48 156.117 117.006 162.104C114.531 168.092 113.192 174.509 113.192 180.99H162.499V131.639Z" fill="white"/>
<path d="M64.0742 70.9981C78.7553 70.7366 113.307 76.8584 113.307 109.449L113.309 180.99C98.5609 180.99 64.0762 170.495 64.0762 138.983L64.0742 70.9981Z" fill="white"/>
<path d="M162.498 106.006C165.857 106.006 169.183 106.669 172.286 107.957C175.389 109.246 178.208 111.134 180.583 113.514C182.958 115.894 184.842 118.72 186.127 121.83C187.413 124.94 188.074 128.273 188.074 131.639L162.499 131.639L162.498 106.006Z" fill="white"/>
</svg>
